<svg width="48" height="48" viewBox="0 0 48 48" fill="none" xmlns="http://www.w3.org/2000/svg">
<path d="M15.7309 23.062L10.6658 37.3242L24.928 32.2725" stroke="#FD5E3A" stroke-width="2.66667" stroke-linecap="round" stroke-linejoin="round"/>
<path d="M13.3318 11.9988H13.3451" stroke="#FD5E3A" stroke-width="2.66667" stroke-linecap="round" stroke-linejoin="round"/>
<path d="M37.3242 18.6633H37.3375" stroke="#FD5E3A" stroke-width="2.66667" stroke-linecap="round" stroke-linejoin="round"/>
<path d="M27.9937 10.6658H28.007" stroke="#FD5E3A" stroke-width="2.66667" stroke-linecap="round" stroke-linejoin="round"/>
<path d="M37.3242 34.6584H37.3375" stroke="#FD5E3A" stroke-width="2.66667" stroke-linecap="round" stroke-linejoin="round"/>
<path d="M37.3234 10.6658L34.3379 11.6654C33.4881 11.9485 32.7629 12.5179 32.2865 13.2764C31.81 14.0349 31.6117 14.9353 31.7256 15.8238C31.8589 16.97 30.9659 17.9962 29.793 17.9962H29.2865C28.1403 17.9962 27.154 18.7959 26.9408 19.9155L26.6609 21.3283" stroke="#FD5E3A" stroke-width="2.66667" stroke-linecap="round" stroke-linejoin="round"/>
<path d="M37.3237 25.328L36.2308 24.8881C35.0846 24.435 33.8051 25.1547 33.5919 26.3676C33.4452 27.3005 32.6322 27.9936 31.6859 27.9936H30.6597" stroke="#FD5E3A" stroke-width="2.66667" stroke-linecap="round" stroke-linejoin="round"/>
<path d="M22.662 10.6658L23.1018 11.7587C23.5549 12.9049 22.8352 14.1844 21.6224 14.3976C20.6894 14.5309 19.9963 15.3573 19.9963 16.3036V17.3298" stroke="#FD5E3A" stroke-width="2.66667" stroke-linecap="round" stroke-linejoin="round"/>
<path d="M22.6615 25.3276C25.2338 27.8999 26.4333 30.8854 25.3271 31.9917C24.2209 33.0979 21.2354 31.8984 18.663 29.326C16.0907 26.7537 14.8912 23.7682 15.9974 22.662C17.1037 21.5557 20.0892 22.7553 22.6615 25.3276Z" stroke="#FD5E3A" stroke-width="2.66667" stroke-linecap="round" stroke-linejoin="round"/>
</svg>
